<svg xmlns="http://www.w3.org/2000/svg" xmlns:xlink="http://www.w3.org/1999/xlink" width="43" height="54" viewBox="0 0 43 54">
    <defs>
        <path id="a" d="M2.553 7.817L20.076.338a4 4 0 0 1 3.15.004l17.352 7.454a4 4 0 0 1 2.421 3.707l-.122 15.372a27.506 27.506 0 0 1-16.735 25.09L21.36 54l-4.896-2.071A26.97 26.97 0 0 1 0 26.875l.123-15.411a4 4 0 0 1 2.43-3.647z"/>
    </defs>
    <g fill="none" fill-rule="evenodd">
        <g>
            <use fill="#FFEE94" xlink:href="#a"/>
            <path stroke="#40515C" stroke-width="2" d="M21.36 52.914l4.39-1.869a26.506 26.506 0 0 0 16.127-24.178l.122-15.372a3 3 0 0 0-1.816-2.78L22.831 1.26a3 3 0 0 0-2.362-.003L2.946 8.736a3 3 0 0 0-1.822 2.736L1 26.882a25.97 25.97 0 0 0 15.852 24.126l4.506 1.906z"/>
        </g>
        <path fill="#FFF" d="M4.424 8.996L19.89 2.368a4 4 0 0 1 3.187.015l17.39 7.652-20.941 24.074-3.875.86c-6.048 1.343-12.04-2.471-13.383-8.52A11.219 11.219 0 0 1 2 24.017V12.672a4 4 0 0 1 2.424-3.676z"/>
        <path stroke="#40515C" stroke-linecap="round" stroke-linejoin="round" stroke-width="2" d="M13 27.875L19.087 34 33 20"/>
    </g>
</svg>
