<svg xmlns="http://www.w3.org/2000/svg" xmlns:xlink="http://www.w3.org/1999/xlink" width="69" height="59" viewBox="0 0 69 59">
    <defs>
        <rect id="a" width="60" height="37" y="20" rx="9"/>
        <path id="b" d="M37.188 45.412l5.318-2.152a4 4 0 0 1 3.01.003l5.222 2.127a4 4 0 0 1 2.49 3.738l-.039 4.679a11.055 11.055 0 0 1-6.917 10.159l-2.387.963-2.436-.978a10.832 10.832 0 0 1-6.8-10.144l.04-4.72a4 4 0 0 1 2.5-3.675z"/>
        <rect id="c" width="11" height="11" x="8" y="30" rx="5.5"/>
    </defs>
    <g fill="none" fill-rule="evenodd" transform="translate(0 -6)">
        <path stroke="#40515C" stroke-width="2" d="M24.686 16.202l27.186 1.313-.893 1.534-5.554-8.763c-1.933-3.05-6.08-3.826-9.279-1.7l-11.49 7.636.03-.02z"/>
        <use fill="#FFEE94" xlink:href="#a"/>
        <rect width="58" height="35" x="1" y="21" stroke="#40515C" stroke-width="2" rx="9"/>
        <rect width="56" height="17" x="2" y="22" fill="#FFF" rx="7"/>
        <use fill="#FFF" xlink:href="#b"/>
        <path stroke="#40515C" stroke-width="2" d="M43.884 63.85l2.013-.812a10.055 10.055 0 0 0 6.293-9.24l.039-4.678a3 3 0 0 0-1.869-2.804l-5.222-2.127a3 3 0 0 0-2.257-.002l-5.318 2.152a3 3 0 0 0-1.874 2.756l-.04 4.72a9.832 9.832 0 0 0 6.172 9.208l2.063.828z"/>
        <path stroke="#40515C" stroke-linecap="round" stroke-linejoin="round" stroke-width="2" d="M41 53.813L43.13 56 48 51"/>
        <path stroke="#40515C" stroke-linecap="round" stroke-width="2" d="M68 39H27M36 34h-9"/>
        <g>
            <use fill="#FFEE94" xlink:href="#c"/>
            <rect width="9" height="9" x="9" y="31" stroke="#40515C" stroke-width="2" rx="4.5"/>
        </g>
    </g>
</svg>
